<?xml version="1.0" standalone="no"?>
<!DOCTYPE svg PUBLIC "-//W3C//DTD SVG 20010904//EN"
 "http://www.w3.org/TR/2001/REC-SVG-20010904/DTD/svg10.dtd">
<svg version="1.0" xmlns="http://www.w3.org/2000/svg"
 width="70.000000pt" height="70.000000pt" viewBox="0 0 70.000000 70.000000"
 preserveAspectRatio="xMidYMid meet">
<metadata>
Created by potrace 1.11, written by Peter Selinger 2001-2013
</metadata>
<g transform="translate(0.000000,70.000000) scale(0.100000,-0.100000)"
fill="#000000" stroke="none">
<path d="M323 614 l-20 -69 39 -3 c22 -2 42 -2 43 0 2 2 -6 34 -19 72 l-22 69
-21 -69z"/>
<path d="M192 598 c4 -8 9 -36 13 -61 8 -49 11 -50 58 -15 16 12 14 16 -30 53
-25 21 -44 32 -41 23z"/>
<path d="M444 566 l-38 -33 33 -17 c18 -10 34 -16 36 -14 5 5 17 98 13 98 -3
0 -22 -15 -44 -34z"/>
<path d="M264 491 c-75 -46 -102 -135 -62 -210 34 -66 67 -86 142 -86 53 0 68
4 98 27 90 69 83 209 -14 268 -43 26 -122 27 -164 1z m143 -18 c48 -22 73 -66
73 -127 0 -43 -4 -53 -38 -87 -66 -66 -136 -65 -196 1 -30 34 -36 47 -36 86 0
110 99 174 197 127z"/>
<path d="M291 394 c-27 -35 -26 -59 4 -89 45 -46 118 -19 118 43 0 69 -80 99
-122 46z"/>
<path d="M126 454 l38 -46 17 34 c20 38 16 42 -49 52 l-44 7 38 -47z"/>
<path d="M540 493 c-50 -8 -52 -10 -35 -43 8 -16 19 -30 23 -30 4 0 22 18 40
40 35 42 34 43 -28 33z"/>
<path d="M85 370 c-32 -11 -45 -20 -35 -24 17 -6 102 -36 104 -36 1 0 1 18 1
40 0 45 -1 45 -70 20z"/>
<path d="M530 349 c0 -35 3 -40 18 -34 9 3 36 11 60 18 23 6 42 14 42 17 0 6
-98 40 -113 40 -4 0 -7 -18 -7 -41z"/>
<path d="M124 244 l-38 -47 33 6 c19 4 39 7 45 7 31 1 38 17 18 49 l-19 32
-39 -47z"/>
<path d="M507 259 c-10 -17 -16 -33 -14 -35 5 -5 101 -23 105 -20 1 2 -15 22
-35 45 l-38 42 -18 -32z"/>
<path d="M210 192 c0 -9 -3 -35 -7 -57 l-6 -39 41 33 c23 18 42 36 42 39 0 4
-16 15 -35 24 -33 17 -35 17 -35 0z"/>
<path d="M443 191 c-18 -9 -33 -19 -33 -22 0 -7 80 -72 84 -68 1 2 -2 27 -8
55 l-11 51 -32 -16z"/>
<path d="M305 152 c2 -7 12 -38 21 -70 l17 -57 17 50 c34 99 35 91 -15 90 -33
0 -44 -4 -40 -13z"/>
</g>
</svg>
